<svg width="23" height="22" viewBox="0 0 23 22" fill="none" xmlns="http://www.w3.org/2000/svg">
<path d="M2.7975 9.64107C2.35747 9.64107 1.99279 9.49728 1.70345 9.2097C1.41393 8.92192 1.26916 8.55812 1.26916 8.11828C1.26916 7.67825 1.41305 7.31348 1.70083 7.02395C1.98841 6.73462 2.35222 6.58995 2.79225 6.58995C3.23227 6.58995 3.59695 6.73384 3.88629 7.02162C4.17582 7.3092 4.32058 7.673 4.32058 8.11303C4.32058 8.55306 4.17669 8.91774 3.88891 9.20707C3.60133 9.49641 3.23752 9.64107 2.7975 9.64107ZM4.18583 19.6251H14.1699V13.1411H11.8365C10.6131 13.1411 9.57807 12.7197 8.73145 11.877C7.88484 11.0341 7.46154 10.0196 7.46154 8.83345C7.46154 7.89273 7.73298 7.04874 8.27587 6.30149C8.81895 5.55443 9.51672 4.99395 10.3692 4.62003C10.5008 3.37111 11.0199 2.34017 11.9264 1.5272C12.8327 0.714225 13.8722 0.307739 15.0449 0.307739C16.2176 0.307739 17.2571 0.714225 18.1634 1.5272C19.0699 2.34017 19.5888 3.37111 19.7203 4.62003C20.5729 4.99395 21.2707 5.55443 21.8136 6.30149C22.3567 7.04874 22.6282 7.89273 22.6282 8.83345C22.6282 10.0196 22.2049 11.0341 21.3583 11.877C20.5117 12.7197 19.4766 13.1411 18.2532 13.1411H15.9199V19.6251H20.8782C21.1261 19.6251 21.3339 19.709 21.5015 19.8768C21.6693 20.0446 21.7532 20.2525 21.7532 20.5004C21.7532 20.7485 21.6693 20.9563 21.5015 21.1237C21.3339 21.2913 21.1261 21.3751 20.8782 21.3751H2.45829C2.15962 21.3751 1.90918 21.2745 1.70695 21.0732C1.50493 20.872 1.40391 20.6226 1.40391 20.3251V16.1251C1.19002 15.9935 0.964565 15.857 0.727538 15.7156C0.490315 15.5743 0.371704 15.3668 0.371704 15.0932V11.6827C0.371704 11.4348 0.455607 11.2271 0.623412 11.0594C0.791023 10.8916 0.998788 10.8077 1.2467 10.8077H4.34275C4.59066 10.8077 4.79852 10.8916 4.96633 11.0594C5.13394 11.2271 5.21775 11.4348 5.21775 11.6827V15.0932C5.21775 15.3668 5.09923 15.5743 4.8622 15.7156C4.62518 15.857 4.39972 15.9935 4.18583 16.1251V19.6251ZM11.8365 11.3911H18.2532C18.9845 11.3911 19.6049 11.1448 20.1143 10.6523C20.6236 10.1598 20.8782 9.55348 20.8782 8.83345C20.8782 8.25614 20.7091 7.74048 20.371 7.28645C20.0331 6.83262 19.5949 6.49127 19.0565 6.26241L18.0782 5.84941L17.9706 4.83528C17.8986 4.05614 17.586 3.39843 17.0326 2.86216C16.4792 2.32588 15.8166 2.05774 15.0449 2.05774C14.2731 2.05774 13.6105 2.32588 13.0569 2.86216C12.5035 3.39843 12.1909 4.05614 12.1192 4.83528L12.0115 5.84941L11.0333 6.26241C10.4949 6.49127 10.0566 6.83262 9.71846 7.28645C9.38051 7.74048 9.21154 8.25614 9.21154 8.83345C9.21154 9.55348 9.46616 10.1598 9.97541 10.6523C10.4847 11.1448 11.105 11.3911 11.8365 11.3911Z" fill="black"/>
</svg>
