<svg width="24" height="24" viewBox="0 0 24 24" fill="none" xmlns="http://www.w3.org/2000/svg">
<path d="M14.313 12.0029L8.23438 6.30007C8.07406 6.14967 7.99599 5.97062 8.00016 5.76293C8.00433 5.55524 8.08657 5.37614 8.24689 5.22561C8.40721 5.0752 8.59805 5 8.81943 5C9.04081 5 9.23172 5.0752 9.39217 5.22561L15.5701 11.0332C15.7159 11.1702 15.8239 11.3235 15.8943 11.4934C15.9648 11.6632 16 11.833 16 12.0029C16 12.1727 15.9648 12.3425 15.8943 12.5124C15.8239 12.6822 15.7159 12.8356 15.5701 12.9725L9.37966 18.7801C9.21935 18.9305 9.03058 19.0038 8.81338 18.9999C8.59603 18.9959 8.40721 18.9188 8.24689 18.7684C8.08657 18.618 8.00641 18.4389 8.00641 18.2312C8.00641 18.0236 8.08657 17.8444 8.24689 17.6939L14.313 12.0029Z" fill="black"/>
</svg>
