<svg width="16" height="19" viewBox="0 0 16 19" fill="none" xmlns="http://www.w3.org/2000/svg">
<path d="M1.34767 16.0084C0.94748 15.9012 0.643087 15.667 0.434491 15.3057C0.225894 14.9444 0.175211 14.5636 0.282441 14.1634L1.27997 10.4406C1.56112 9.39134 2.17056 8.59608 3.1083 8.05478C4.04595 7.51332 5.03939 7.38316 6.08863 7.6643L7.00968 7.9111L8.74344 1.4406C8.85121 1.0384 9.08435 0.731765 9.44286 0.520696C9.80134 0.309761 10.1813 0.25807 10.5827 0.365624L11.945 0.730667C12.3464 0.83822 12.6496 1.07295 12.8546 1.43487C13.0595 1.79691 13.1081 2.17904 13.0004 2.58124L11.2666 9.05173L12.1798 9.29643C13.2312 9.57814 14.0283 10.1881 14.5712 11.1263C15.1142 12.0643 15.2451 13.0579 14.9639 14.1072L13.9664 17.83C13.8592 18.2302 13.6249 18.5346 13.2636 18.7432C12.9023 18.9518 12.5216 19.0025 12.1214 18.8952L1.34767 16.0084ZM1.67119 14.801L3.3352 15.2469L4.03827 12.623C4.0841 12.452 4.1804 12.3241 4.32717 12.2395C4.47393 12.1549 4.63284 12.1355 4.80388 12.1813C4.97507 12.2272 5.10292 12.3234 5.18744 12.47C5.2721 12.6166 5.29151 12.7755 5.24568 12.9465L4.54261 15.5704L6.45434 16.0827L7.15741 13.4588C7.20324 13.2877 7.29954 13.1599 7.4463 13.0753C7.59306 12.9907 7.75197 12.9713 7.92302 13.0171C8.0942 13.063 8.22206 13.1592 8.30658 13.3058C8.39124 13.4524 8.41065 13.6113 8.36481 13.7823L7.66174 16.4062L9.57347 16.9184L10.2765 14.2946C10.3224 14.1235 10.4187 13.9957 10.5654 13.911C10.7122 13.8264 10.8711 13.807 11.0422 13.8529C11.2133 13.8987 11.3412 13.995 11.4257 14.1416C11.5104 14.2882 11.5298 14.447 11.4839 14.6181L10.7809 17.242L12.4449 17.6878C12.5172 17.7072 12.5828 17.6999 12.6416 17.6659C12.7005 17.632 12.7396 17.5788 12.759 17.5065L13.7565 13.7837C13.9501 13.0614 13.8618 12.3824 13.4918 11.7468C13.1217 11.1111 12.5766 10.6968 11.8563 10.5038L5.7651 8.87171C5.0471 8.67932 4.36941 8.76712 3.73203 9.13511C3.09465 9.5031 2.67977 10.0461 2.48738 10.7641L1.48985 14.4869C1.47047 14.5593 1.47778 14.6248 1.51176 14.6837C1.54574 14.7425 1.59888 14.7817 1.67119 14.801ZM10.0592 8.72821L11.793 2.25771C11.8123 2.18554 11.8053 2.11868 11.7721 2.05714C11.7388 1.99574 11.6886 1.95605 11.6215 1.93807L10.2591 1.57303C10.1921 1.55506 10.1288 1.56434 10.0692 1.60087C10.0096 1.63753 9.97019 1.69195 9.95085 1.76412L8.21709 8.23462L10.0592 8.72821Z" fill="black"/>
</svg>
