<svg width="32" height="32" viewBox="0 0 32 32" fill="none" xmlns="http://www.w3.org/2000/svg">
<path d="M11.7995 22.4333L15.9995 19.9L20.1995 22.4667L19.0995 17.6666L22.7995 14.4667L17.9329 14.0333L15.9995 9.49998L14.0662 14L9.19952 14.4333L12.8995 17.6666L11.7995 22.4333ZM15.9995 22.2513L10.8125 25.3793C10.6192 25.4922 10.4255 25.5396 10.2315 25.5217C10.0375 25.5037 9.86197 25.4383 9.70486 25.3256C9.54752 25.2128 9.42608 25.0653 9.34052 24.8833C9.25519 24.7013 9.24152 24.5 9.29952 24.2793L10.6765 18.3896L6.09719 14.4257C5.92608 14.277 5.81708 14.1048 5.77019 13.909C5.72308 13.7132 5.73541 13.523 5.80719 13.3383C5.87897 13.1539 5.98241 13.0031 6.11752 12.886C6.25263 12.7689 6.4373 12.6923 6.67152 12.6563L12.7149 12.1283L15.0612 6.56665C15.1465 6.35976 15.276 6.20676 15.4495 6.10765C15.6231 6.00854 15.8064 5.95898 15.9995 5.95898C16.1926 5.95898 16.376 6.00854 16.5495 6.10765C16.7231 6.20676 16.8525 6.35976 16.9379 6.56665L19.2842 12.1283L25.3275 12.6563C25.5617 12.6923 25.7464 12.7689 25.8815 12.886C26.0166 13.0031 26.1201 13.1539 26.1919 13.3383C26.2636 13.523 26.276 13.7132 26.2289 13.909C26.182 14.1048 26.073 14.277 25.9019 14.4257L21.3225 18.3896L22.6995 24.2793C22.7575 24.5 22.7439 24.7013 22.6585 24.8833C22.573 25.0653 22.4515 25.2128 22.2942 25.3256C22.1371 25.4383 21.9615 25.5037 21.7675 25.5217C21.5735 25.5396 21.3799 25.4922 21.1865 25.3793L15.9995 22.2513Z" fill="#5A5A56"/>
</svg>
