<svg width="20" height="18" viewBox="0 0 20 18" fill="none" xmlns="http://www.w3.org/2000/svg">
<path d="M10 14.1152C11.1475 14.1152 12.1202 13.7163 12.9183 12.9183C13.7162 12.1203 14.1152 11.1475 14.1152 10C14.1152 8.8525 13.7162 7.87975 12.9183 7.08175C12.1202 6.28375 11.1475 5.88475 10 5.88475C8.8525 5.88475 7.87975 6.28375 7.08175 7.08175C6.28375 7.87975 5.88475 8.8525 5.88475 10C5.88475 11.1475 6.28375 12.1203 7.08175 12.9183C7.87975 13.7163 8.8525 14.1152 10 14.1152ZM10 12.6155C9.2615 12.6155 8.641 12.3642 8.1385 11.8615C7.63583 11.359 7.3845 10.7385 7.3845 10C7.3845 9.2615 7.63583 8.641 8.1385 8.1385C8.641 7.63583 9.2615 7.3845 10 7.3845C10.7385 7.3845 11.359 7.63583 11.8615 8.1385C12.3642 8.641 12.6155 9.2615 12.6155 10C12.6155 10.7385 12.3642 11.359 11.8615 11.8615C11.359 12.3642 10.7385 12.6155 10 12.6155ZM2.30775 17.5C1.80258 17.5 1.375 17.325 1.025 16.975C0.675 16.625 0.5 16.1974 0.5 15.6923V4.30775C0.5 3.80258 0.675 3.375 1.025 3.025C1.375 2.675 1.80258 2.5 2.30775 2.5H5.3615L6.66925 1.08275C6.83342 0.901917 7.03183 0.759583 7.2645 0.65575C7.49717 0.551916 7.74233 0.5 8 0.5H12C12.2577 0.5 12.5028 0.551916 12.7355 0.65575C12.9682 0.759583 13.1666 0.901917 13.3307 1.08275L14.6385 2.5H17.6923C18.1974 2.5 18.625 2.675 18.975 3.025C19.325 3.375 19.5 3.80258 19.5 4.30775V15.6923C19.5 16.1974 19.325 16.625 18.975 16.975C18.625 17.325 18.1974 17.5 17.6923 17.5H2.30775ZM2.30775 16H17.6923C17.7821 16 17.8558 15.9712 17.9135 15.9135C17.9712 15.8558 18 15.7821 18 15.6923V4.30775C18 4.21792 17.9712 4.14417 17.9135 4.0865C17.8558 4.02883 17.7821 4 17.6923 4H13.9693L12.1345 2H7.8655L6.03075 4H2.30775C2.21792 4 2.14417 4.02883 2.0865 4.0865C2.02883 4.14417 2 4.21792 2 4.30775V15.6923C2 15.7821 2.02883 15.8558 2.0865 15.9135C2.14417 15.9712 2.21792 16 2.30775 16Z" fill="white"/>
</svg>
