<svg width="24" height="25" viewBox="0 0 24 25" fill="none" xmlns="http://www.w3.org/2000/svg">
<path d="M9.52472 18.1437L19.7592 7.90895L18.6902 6.8552L9.50922 16.0207L5.28422 11.7802L4.21522 12.8495L9.52472 18.1437ZM8.44597 19.188L3.17097 13.913C3.0158 13.7578 2.90364 13.5898 2.83447 13.409C2.76514 13.2283 2.73047 13.0418 2.73047 12.8495C2.73047 12.6571 2.76514 12.468 2.83447 12.2822C2.90364 12.0962 3.0158 11.9257 3.17097 11.7707L4.20547 10.736C4.36064 10.581 4.52864 10.4662 4.70947 10.3917C4.89014 10.3174 5.08172 10.2802 5.28422 10.2802C5.48689 10.2802 5.67855 10.3174 5.85922 10.3917C6.04005 10.4662 6.20805 10.581 6.36322 10.736L9.52472 13.8977L17.621 5.78595C17.7658 5.63095 17.9311 5.51879 18.117 5.44945C18.303 5.38029 18.4921 5.3457 18.6842 5.3457C18.8766 5.3457 19.0657 5.38029 19.2517 5.44945C19.4376 5.51879 19.6081 5.62587 19.7632 5.7707L20.8132 6.8052C20.9682 6.96037 21.083 7.12837 21.1575 7.3092C21.2318 7.48987 21.269 7.68145 21.269 7.88395C21.269 8.08662 21.2343 8.27829 21.165 8.45895C21.0958 8.63979 20.9836 8.80779 20.8285 8.96295L10.6035 19.188C10.4485 19.343 10.278 19.4577 10.092 19.5322C9.90614 19.6065 9.71705 19.6437 9.52472 19.6437C9.33239 19.6437 9.1433 19.6065 8.95747 19.5322C8.77147 19.4577 8.60097 19.343 8.44597 19.188Z" fill="black"/>
</svg>
