<svg width="25" height="24" viewBox="0 0 25 24" fill="none" xmlns="http://www.w3.org/2000/svg">
<path d="M11.7508 21.4508V20.47C9.66745 20.2559 7.91361 19.4366 6.48928 18.0123C5.06495 16.5879 4.2457 14.8341 4.03153 12.7508H3.05078C2.83828 12.7508 2.6602 12.6789 2.51653 12.535C2.3727 12.3912 2.30078 12.213 2.30078 12.0005C2.30078 11.7879 2.3727 11.6098 2.51653 11.4663C2.6602 11.3226 2.83828 11.2508 3.05078 11.2508H4.03153C4.2457 9.16745 5.06495 7.41361 6.48928 5.98928C7.91361 4.56495 9.66745 3.7457 11.7508 3.53153V2.55078C11.7508 2.33828 11.8227 2.1602 11.9665 2.01653C12.1104 1.8727 12.2885 1.80078 12.501 1.80078C12.7137 1.80078 12.8918 1.8727 13.0353 2.01653C13.1789 2.1602 13.2508 2.33828 13.2508 2.55078V3.53153C15.3341 3.7457 17.0879 4.56495 18.5123 5.98928C19.9366 7.41361 20.7559 9.16745 20.97 11.2508H21.9508C22.1633 11.2508 22.3414 11.3227 22.485 11.4665C22.6289 11.6104 22.7008 11.7885 22.7008 12.001C22.7008 12.2137 22.6289 12.3918 22.485 12.5353C22.3414 12.6789 22.1633 12.7508 21.9508 12.7508H20.97C20.7559 14.8341 19.9366 16.5879 18.5123 18.0123C17.0879 19.4366 15.3341 20.2559 13.2508 20.47V21.4508C13.2508 21.6633 13.1789 21.8414 13.035 21.985C12.8912 22.1289 12.713 22.2008 12.5005 22.2008C12.2879 22.2008 12.1098 22.1289 11.9663 21.985C11.8226 21.8414 11.7508 21.6633 11.7508 21.4508ZM12.5008 19.0008C14.4341 19.0008 16.0841 18.3174 17.4508 16.9508C18.8174 15.5841 19.5008 13.9341 19.5008 12.0008C19.5008 10.0674 18.8174 8.41745 17.4508 7.05078C16.0841 5.68411 14.4341 5.00078 12.5008 5.00078C10.5674 5.00078 8.91745 5.68411 7.55078 7.05078C6.18411 8.41745 5.50078 10.0674 5.50078 12.0008C5.50078 13.9341 6.18411 15.5841 7.55078 16.9508C8.91745 18.3174 10.5674 19.0008 12.5008 19.0008ZM12.5008 15.5008C11.5383 15.5008 10.7144 15.158 10.029 14.4725C9.34353 13.7872 9.00078 12.9633 9.00078 12.0008C9.00078 11.0383 9.34353 10.2144 10.029 9.52903C10.7144 8.84353 11.5383 8.50078 12.5008 8.50078C13.4633 8.50078 14.2872 8.84353 14.9725 9.52903C15.658 10.2144 16.0008 11.0383 16.0008 12.0008C16.0008 12.9633 15.658 13.7872 14.9725 14.4725C14.2872 15.158 13.4633 15.5008 12.5008 15.5008Z" fill="white"/>
</svg>
