<svg width="20" height="20" viewBox="0 0 20 20" fill="none" xmlns="http://www.w3.org/2000/svg">
<path d="M10 11.0538L13.073 14.127C13.2115 14.2653 13.3856 14.3362 13.5953 14.3395C13.8048 14.3427 13.982 14.2718 14.127 14.127C14.2718 13.982 14.3443 13.8063 14.3443 13.6C14.3443 13.3937 14.2718 13.218 14.127 13.073L11.0538 10L14.127 6.927C14.2653 6.7885 14.3362 6.61442 14.3395 6.40475C14.3427 6.19525 14.2718 6.018 14.127 5.873C13.982 5.72817 13.8063 5.65575 13.6 5.65575C13.3937 5.65575 13.218 5.72817 13.073 5.873L10 8.94625L6.927 5.873C6.7885 5.73467 6.61442 5.66383 6.40475 5.6605C6.19525 5.65733 6.018 5.72817 5.873 5.873C5.72817 6.018 5.65575 6.19367 5.65575 6.4C5.65575 6.60633 5.72817 6.782 5.873 6.927L8.94625 10L5.873 13.073C5.73467 13.2115 5.66383 13.3856 5.6605 13.5953C5.65733 13.8048 5.72817 13.982 5.873 14.127C6.018 14.2718 6.19367 14.3443 6.4 14.3443C6.60633 14.3443 6.782 14.2718 6.927 14.127L10 11.0538ZM10.0017 19.5C8.68775 19.5 7.45267 19.2507 6.2965 18.752C5.14033 18.2533 4.13467 17.5766 3.2795 16.7218C2.42433 15.8669 1.74725 14.8617 1.24825 13.706C0.749417 12.5503 0.5 11.3156 0.5 10.0017C0.5 8.68775 0.749333 7.45267 1.248 6.2965C1.74667 5.14033 2.42342 4.13467 3.27825 3.2795C4.13308 2.42433 5.13833 1.74725 6.294 1.24825C7.44967 0.749417 8.68442 0.5 9.99825 0.5C11.3123 0.5 12.5473 0.749333 13.7035 1.248C14.8597 1.74667 15.8653 2.42342 16.7205 3.27825C17.5757 4.13308 18.2528 5.13833 18.7518 6.294C19.2506 7.44967 19.5 8.68442 19.5 9.99825C19.5 11.3123 19.2507 12.5473 18.752 13.7035C18.2533 14.8597 17.5766 15.8653 16.7218 16.7205C15.8669 17.5757 14.8617 18.2528 13.706 18.7518C12.5503 19.2506 11.3156 19.5 10.0017 19.5ZM10 18C12.2333 18 14.125 17.225 15.675 15.675C17.225 14.125 18 12.2333 18 10C18 7.76667 17.225 5.875 15.675 4.325C14.125 2.775 12.2333 2 10 2C7.76667 2 5.875 2.775 4.325 4.325C2.775 5.875 2 7.76667 2 10C2 12.2333 2.775 14.125 4.325 15.675C5.875 17.225 7.76667 18 10 18Z" fill="black"/>
</svg>
