<svg width="8" height="14" viewBox="0 0 8 14" fill="none" xmlns="http://www.w3.org/2000/svg">
<path d="M6.31304 7.00286L0.23438 1.30007C0.0740633 1.14967 -0.00401079 0.970621 0.000158522 0.762933C0.00432784 0.555245 0.0865712 0.376135 0.246888 0.225605C0.407205 0.0752015 0.598052 0 0.81943 0C1.04081 0 1.23172 0.0752015 1.39217 0.225605L7.57009 6.03325C7.71588 6.17015 7.82395 6.32352 7.89429 6.49335C7.96476 6.66319 8 6.83302 8 7.00286C8 7.17269 7.96476 7.34253 7.89429 7.51236C7.82395 7.6822 7.71588 7.83557 7.57009 7.97247L1.37966 13.7801C1.21935 13.9305 1.03058 14.0038 0.813377 13.9999C0.596035 13.9959 0.407205 13.9188 0.246888 13.7684C0.0865712 13.618 0.00641245 13.4389 0.00641245 13.2312C0.00641245 13.0236 0.0865712 12.8444 0.246888 12.6939L6.31304 7.00286Z" fill="black"/>
</svg>
