<svg width="14" height="14" viewBox="0 0 14 14" fill="none" xmlns="http://www.w3.org/2000/svg">
<path d="M6.99935 13.3327C6.12413 13.3327 5.30129 13.1662 4.53085 12.8333C3.76029 12.5005 3.08996 12.049 2.51985 11.4789C1.94974 10.9087 1.49824 10.2384 1.16535 9.46785C0.83246 8.6974 0.666016 7.87457 0.666016 6.99935C0.666016 6.12413 0.83246 5.30129 1.16535 4.53085C1.49824 3.76029 1.94974 3.08996 2.51985 2.51985C3.08996 1.94974 3.76029 1.49824 4.53085 1.16535C5.30129 0.83246 6.12413 0.666016 6.99935 0.666016C7.87457 0.666016 8.6974 0.83246 9.46785 1.16535C10.2384 1.49824 10.9087 1.94974 11.4789 2.51985C12.049 3.08996 12.5005 3.76029 12.8333 4.53085C13.1662 5.30129 13.3327 6.12413 13.3327 6.99935C13.3327 7.87457 13.1662 8.6974 12.8333 9.46785C12.5005 10.2384 12.049 10.9087 11.4789 11.4789C10.9087 12.049 10.2384 12.5005 9.46785 12.8333C8.6974 13.1662 7.87457 13.3327 6.99935 13.3327ZM6.99935 12.3327C8.48824 12.3327 9.74935 11.816 10.7827 10.7827C11.816 9.74935 12.3327 8.48824 12.3327 6.99935C12.3327 5.51046 11.816 4.24935 10.7827 3.21602C9.74935 2.18268 8.48824 1.66602 6.99935 1.66602C5.51046 1.66602 4.24935 2.18268 3.21602 3.21602C2.18268 4.24935 1.66602 5.51046 1.66602 6.99935C1.66602 8.48824 2.18268 9.74935 3.21602 10.7827C4.24935 11.816 5.51046 12.3327 6.99935 12.3327Z" fill="#456653"/>
<path d="M6.99935 12.3327C8.48824 12.3327 9.74935 11.816 10.7827 10.7827C11.816 9.74935 12.3327 8.48824 12.3327 6.99935C12.3327 5.51046 11.816 4.24935 10.7827 3.21602C9.74935 2.18268 8.48824 1.66602 6.99935 1.66602C5.51046 1.66602 4.24935 2.18268 3.21602 3.21602C2.18268 4.24935 1.66602 5.51046 1.66602 6.99935C1.66602 8.48824 2.18268 9.74935 3.21602 10.7827C4.24935 11.816 5.51046 12.3327 6.99935 12.3327Z" fill="#456653"/>
<path d="M6.65619 10.9752C6.18335 10.8849 5.72745 10.7281 5.2885 10.5048C4.84962 10.2815 4.46081 9.97437 4.12206 9.58353C3.78331 9.19263 3.51145 8.71247 3.30648 8.14307C3.10151 7.57359 2.99902 6.9001 2.99902 6.12257V5.99408C2.99902 5.89219 3.03155 5.8075 3.09661 5.74001C3.1616 5.67244 3.24374 5.63866 3.34303 5.63866H3.46825C3.78733 5.63866 4.11932 5.68022 4.4642 5.76333C4.80916 5.84645 5.132 5.96794 5.43273 6.1278C5.50928 5.63501 5.65922 5.1276 5.88255 4.60559C6.10594 4.08357 6.36944 3.60901 6.67305 3.18191C6.75764 3.05999 6.86551 2.99902 6.99667 2.99902C7.12783 2.99902 7.23571 3.05999 7.3203 3.18191C7.6239 3.60901 7.88779 4.08357 8.11197 4.60559C8.33608 5.1276 8.48641 5.63501 8.56297 6.1278C8.87154 5.96318 9.19709 5.84008 9.53962 5.75851C9.88222 5.677 10.2201 5.63625 10.5532 5.63625H10.6205C10.7248 5.63625 10.8139 5.67385 10.8879 5.74905C10.962 5.82426 10.999 5.91532 10.999 6.02223V6.09371C10.999 6.87928 10.8969 7.55838 10.6927 8.131C10.4886 8.70369 10.2175 9.18586 9.87951 9.5775C9.54155 9.96921 9.1531 10.2767 8.71415 10.5C8.27527 10.7233 7.81862 10.8809 7.3442 10.9728C7.24988 10.9894 7.13521 10.9982 7.0002 10.999C6.86518 10.9998 6.75052 10.9919 6.65619 10.9752ZM6.94308 10.0881C6.86659 9.00776 6.54398 8.18747 5.97524 7.62718C5.40657 7.06696 4.71745 6.71821 3.90788 6.58094H3.91023C3.98522 7.68007 4.31528 8.51008 4.90041 9.07097C5.4856 9.63186 6.16649 9.97089 6.94308 10.0881C6.95457 10.0948 6.95457 10.0964 6.94308 10.0931C6.93158 10.0897 6.93158 10.0881 6.94308 10.0881ZM6.27114 6.63604C6.39707 6.74033 6.52797 6.86605 6.66384 7.01317C6.79977 7.16023 6.91189 7.3027 7.0002 7.44058C7.10131 7.29627 7.21468 7.15497 7.34029 7.01669C7.46583 6.87841 7.59392 6.75153 7.72456 6.63604C7.70372 6.26356 7.63102 5.88596 7.50646 5.50323C7.38196 5.1205 7.21164 4.73703 6.9955 4.35282C6.78249 4.72744 6.61413 5.10813 6.49041 5.49488C6.36663 5.88157 6.29354 6.26195 6.27114 6.63604ZM7.49225 8.36446C7.57063 8.57895 7.63876 8.81194 7.69664 9.06343C7.75444 9.31492 7.79968 9.58813 7.83234 9.88305C8.05658 9.80262 8.29271 9.68317 8.54073 9.52472C8.78868 9.36626 9.01942 9.1566 9.23295 8.89572C9.44641 8.63478 9.63169 8.31466 9.78878 7.93534C9.94581 7.5561 10.0439 7.10463 10.0831 6.58094C10.0847 6.56914 10.0851 6.56955 10.0843 6.58215C10.0835 6.59475 10.0831 6.59435 10.0831 6.58094C9.49726 6.67639 8.98183 6.87704 8.53681 7.18289C8.09172 7.48874 7.74354 7.88259 7.49225 8.36446Z" fill="white"/>
</svg>
