<svg width="23" height="20" viewBox="0 0 23 20" fill="none" xmlns="http://www.w3.org/2000/svg">
<path d="M1.83325 18.1667H6.8925V8.83337H1.83325V18.1667ZM8.6425 18.1667H13.6907V1.83337H8.6425V18.1667ZM15.4407 18.1667H20.4999V11.1667H15.4407V18.1667ZM0.083252 17.8077V9.19242C0.083252 8.61239 0.289752 8.11587 0.702752 7.70287C1.11575 7.28987 1.61227 7.08337 2.19229 7.08337H6.8925V2.19242C6.8925 1.61239 7.099 1.11587 7.512 0.702874C7.925 0.289874 8.42152 0.083374 9.00154 0.083374H13.3316C13.9117 0.083374 14.4082 0.289874 14.8212 0.702874C15.2342 1.11587 15.4407 1.61239 15.4407 2.19242V9.41671H20.1409C20.7209 9.41671 21.2174 9.62321 21.6304 10.0362C22.0434 10.4492 22.2499 10.9457 22.2499 11.5257V17.8077C22.2499 18.3877 22.0434 18.8842 21.6304 19.2972C21.2174 19.7102 20.7209 19.9167 20.1409 19.9167H2.19229C1.61227 19.9167 1.11575 19.7102 0.702752 19.2972C0.289752 18.8842 0.083252 18.3877 0.083252 17.8077Z" fill="black"/>
</svg>
