<svg width="16" height="16" viewBox="0 0 16 16" fill="none" xmlns="http://www.w3.org/2000/svg">
<path d="M0.910984 11.8583C0.74754 11.8583 0.610484 11.803 0.499818 11.6924C0.389262 11.5818 0.333984 11.4447 0.333984 11.2813V11.0454C0.333984 10.6019 0.565595 10.2375 1.02882 9.95243C1.49215 9.66743 2.09604 9.52493 2.84048 9.52493C2.96348 9.52493 3.08737 9.52876 3.21215 9.53643C3.33693 9.54409 3.4626 9.55904 3.58915 9.58126C3.45926 9.78904 3.36287 10.0047 3.29998 10.2281C3.23721 10.4517 3.20582 10.6809 3.20582 10.9159V11.8583H0.910984ZM4.93915 11.8583C4.7656 11.8583 4.62137 11.8005 4.50648 11.6849C4.39148 11.5695 4.33398 11.4264 4.33398 11.2556V10.9416C4.33398 10.6295 4.4216 10.3442 4.59682 10.0858C4.77204 9.82721 5.0246 9.60182 5.35448 9.40959C5.68437 9.21726 6.07415 9.07304 6.52382 8.97693C6.97337 8.88071 7.46482 8.83259 7.99815 8.83259C8.54171 8.83259 9.03826 8.88071 9.48782 8.97693C9.93737 9.07304 10.3271 9.21726 10.657 9.40959C10.987 9.60182 11.2379 9.82721 11.4097 10.0858C11.5814 10.3442 11.6673 10.6295 11.6673 10.9416V11.2556C11.6673 11.4264 11.6095 11.5695 11.494 11.6849C11.3785 11.8005 11.2354 11.8583 11.0647 11.8583H4.93915ZM12.7955 11.8583V10.9168C12.7955 10.6658 12.7658 10.4296 12.7065 10.2083C12.647 9.98693 12.5579 9.77793 12.4392 9.58126C12.5699 9.55904 12.6949 9.54409 12.8142 9.53643C12.9334 9.52876 13.0511 9.52493 13.1673 9.52493C13.9118 9.52493 14.5145 9.66576 14.9756 9.94743C15.4368 10.229 15.6673 10.595 15.6673 11.0454V11.2813C15.6673 11.4447 15.612 11.5818 15.5015 11.6924C15.3908 11.803 15.2538 11.8583 15.0903 11.8583H12.7955ZM5.38532 10.8583H10.6263V10.7878C10.558 10.5185 10.2742 10.292 9.77498 10.1083C9.27587 9.92448 8.68443 9.83259 8.00065 9.83259C7.31687 9.83259 6.72543 9.92448 6.22632 10.1083C5.7271 10.292 5.44676 10.5185 5.38532 10.7878V10.8583ZM2.83865 8.87743C2.52443 8.87743 2.25598 8.76571 2.03332 8.54226C1.81065 8.31882 1.69932 8.05021 1.69932 7.73643C1.69932 7.41854 1.8111 7.14998 2.03465 6.93076C2.2581 6.71154 2.52671 6.60193 2.84048 6.60193C3.15837 6.60193 3.42798 6.71154 3.64932 6.93076C3.87076 7.14998 3.98148 7.41921 3.98148 7.73843C3.98148 8.04821 3.87193 8.31548 3.65282 8.54026C3.43382 8.76504 3.16243 8.87743 2.83865 8.87743ZM13.1673 8.87743C12.8562 8.87743 12.5883 8.76504 12.3635 8.54026C12.1387 8.31548 12.0263 8.04821 12.0263 7.73843C12.0263 7.41921 12.1387 7.14998 12.3635 6.93076C12.5883 6.71154 12.8566 6.60193 13.1685 6.60193C13.4899 6.60193 13.7603 6.71154 13.9795 6.93076C14.1987 7.14998 14.3083 7.41854 14.3083 7.73643C14.3083 8.05021 14.199 8.31882 13.9803 8.54226C13.7617 8.76571 13.4907 8.87743 13.1673 8.87743ZM8.00298 8.33259C7.52276 8.33259 7.11387 8.16432 6.77632 7.82776C6.43876 7.49132 6.26998 7.0827 6.26998 6.60193C6.26998 6.11148 6.43821 5.70043 6.77465 5.36876C7.11121 5.03698 7.51987 4.87109 8.00065 4.87109C8.49098 4.87109 8.90204 5.03676 9.23382 5.36809C9.56548 5.69932 9.73132 6.10982 9.73132 6.59959C9.73132 7.07971 9.56571 7.48859 9.23448 7.82626C8.90315 8.16382 8.49265 8.33259 8.00298 8.33259ZM8.00382 7.33259C8.20771 7.33259 8.37993 7.26126 8.52048 7.11859C8.66115 6.97582 8.73148 6.80248 8.73148 6.59859C8.73148 6.39482 8.66143 6.22259 8.52132 6.08193C8.38121 5.94137 8.20765 5.87109 8.00065 5.87109C7.79898 5.87109 7.62676 5.94115 7.48398 6.08126C7.34121 6.22126 7.26982 6.39482 7.26982 6.60193C7.26982 6.80359 7.34121 6.97582 7.48398 7.11859C7.62676 7.26126 7.80004 7.33259 8.00382 7.33259Z" fill="#5A5A56"/>
</svg>
