<svg width="97" height="16" viewBox="0 0 97 16" fill="none" xmlns="http://www.w3.org/2000/svg">
<path d="M2.39459 14.5882H13.5819L11.2887 12.2951C10.8338 12.6486 10.3279 12.9231 9.77106 13.1186C9.2142 13.314 8.62384 13.4118 8 13.4118C7.37616 13.4118 6.7858 13.3116 6.22894 13.1113C5.67208 12.911 5.1662 12.634 4.71129 12.2805L2.39459 14.5882ZM1.41176 13.5819L3.70494 11.2887C3.35137 10.8338 3.07686 10.3279 2.88141 9.77106C2.68596 9.2142 2.58824 8.62384 2.58824 8C2.58824 7.37616 2.68839 6.7858 2.88871 6.22894C3.08902 5.67208 3.36596 5.1662 3.71953 4.71129L1.41176 2.39459V13.5819ZM4.72588 10.268L7.00824 8L4.72588 5.732C4.49294 6.05671 4.31373 6.40761 4.18824 6.78471C4.06275 7.16165 4 7.56675 4 8C4 8.43326 4.06275 8.83835 4.18824 9.21529C4.31373 9.59239 4.49294 9.94329 4.72588 10.268ZM8 12C8.43326 12 8.83835 11.9373 9.21529 11.8118C9.59239 11.6863 9.94329 11.5071 10.268 11.2741L8 8.98282L5.70847 11.2741C6.03318 11.5071 6.388 11.6863 6.77294 11.8118C7.15773 11.9373 7.56675 12 8 12ZM8 6.99365L10.268 4.72588C9.94329 4.49294 9.59239 4.31373 9.21529 4.18824C8.83835 4.06275 8.43326 4 8 4C7.56675 4 7.16165 4.06275 6.78471 4.18824C6.40761 4.31373 6.05671 4.49294 5.732 4.72588L8 6.99365ZM11.2741 10.268C11.5071 9.94329 11.6863 9.59239 11.8118 9.21529C11.9373 8.83835 12 8.43326 12 8C12 7.56675 11.9373 7.15772 11.8118 6.77294C11.6863 6.388 11.5071 6.03318 11.2741 5.70847L9.00635 7.97647L11.2741 10.268ZM14.5882 13.5819V2.39459L12.2805 4.71129C12.634 5.1662 12.911 5.67208 13.1113 6.22894C13.3116 6.7858 13.4118 7.37616 13.4118 8C13.4118 8.62384 13.314 9.2142 13.1186 9.77106C12.9231 10.3279 12.6486 10.8338 12.2951 11.2887L14.5882 13.5819ZM11.2887 3.71953L13.6054 1.41176H2.41812L4.71129 3.70494C5.1662 3.35137 5.67208 3.07686 6.22894 2.88141C6.7858 2.68596 7.37616 2.58824 8 2.58824C8.62384 2.58824 9.2142 2.68839 9.77106 2.88871C10.3279 3.08902 10.8338 3.36596 11.2887 3.71953ZM1.70141 16C1.22596 16 0.823529 15.8353 0.494118 15.5059C0.164706 15.1765 0 14.774 0 14.2986V1.70141C0 1.22596 0.164706 0.823529 0.494118 0.494118C0.823529 0.164706 1.22596 0 1.70141 0H14.2986C14.774 0 15.1765 0.164706 15.5059 0.494118C15.8353 0.823529 16 1.22596 16 1.70141V14.2986C16 14.7679 15.8353 15.1689 15.5059 15.5014C15.1765 15.8338 14.774 16 14.2986 16H1.70141Z" fill="#456653"/>
<path d="M28.24 9.336L32.032 14.28H28.128L25.168 9.64H25.136V14.28H22V2.216H26.688C27.8827 2.22667 28.88 2.53067 29.68 3.128C30.48 3.71467 30.88 4.65333 30.88 5.944C30.88 6.776 30.6507 7.51733 30.192 8.168C29.744 8.808 29.0933 9.20267 28.24 9.352V9.336ZM25.136 4.616V7.624H25.44C25.4933 7.63467 25.5467 7.64 25.6 7.64C25.6533 7.64 25.7013 7.64 25.744 7.64C26.2133 7.61867 26.64 7.512 27.024 7.32C27.4187 7.11733 27.616 6.72267 27.616 6.136C27.616 5.54933 27.4187 5.16 27.024 4.968C26.64 4.76533 26.2133 4.65333 25.744 4.632C25.7013 4.632 25.6533 4.632 25.6 4.632C25.5467 4.632 25.4933 4.632 25.44 4.632L25.136 4.616Z" fill="#456653"/>
<path d="M41.243 10.36V10.664H35.115C35.115 11.2613 35.2697 11.72 35.579 12.04C35.8883 12.3493 36.3417 12.504 36.939 12.504C37.2483 12.504 37.515 12.4453 37.739 12.328C37.9737 12.2107 38.171 12.0187 38.331 11.752L41.131 11.736C40.8963 12.7173 40.3737 13.432 39.563 13.88C38.763 14.328 37.8937 14.552 36.955 14.552C35.6003 14.552 34.4697 14.184 33.563 13.448C32.6563 12.7013 32.203 11.6187 32.203 10.2C32.203 8.83467 32.6243 7.76267 33.467 6.984C34.3203 6.20533 35.4137 5.816 36.747 5.816C38.1763 5.816 39.2803 6.22667 40.059 7.048C40.8483 7.86933 41.243 8.97867 41.243 10.376V10.36ZM35.163 8.984H38.539C38.4643 8.6 38.267 8.29067 37.947 8.056C37.6377 7.82133 37.2857 7.704 36.891 7.704C36.4643 7.704 36.091 7.816 35.771 8.04C35.451 8.25333 35.2483 8.57333 35.163 9V8.984Z" fill="#456653"/>
<path d="M51.5526 6.072V14.28H48.6406V13.368H48.6086C48.374 13.752 48.054 14.04 47.6486 14.232C47.2433 14.4133 46.822 14.5147 46.3846 14.536C46.342 14.5467 46.2993 14.552 46.2566 14.552C46.214 14.552 46.1713 14.552 46.1286 14.552C44.9126 14.552 43.9153 14.12 43.1366 13.256C42.3686 12.3813 41.9846 11.3573 41.9846 10.184C41.9846 9.01067 42.3633 7.992 43.1206 7.128C43.8886 6.25333 44.8806 5.816 46.0966 5.816C46.15 5.816 46.2033 5.816 46.2566 5.816C46.31 5.816 46.3633 5.82133 46.4166 5.832C46.8326 5.864 47.238 5.97067 47.6326 6.152C48.038 6.32267 48.374 6.568 48.6406 6.888V6.072H51.5526ZM46.8646 8.328C46.278 8.33867 45.8193 8.53067 45.4886 8.904C45.158 9.26667 44.9926 9.69867 44.9926 10.2C44.9926 10.7227 45.158 11.16 45.4886 11.512C45.8193 11.864 46.278 12.04 46.8646 12.04C47.462 12.04 47.9206 11.864 48.2406 11.512C48.5713 11.16 48.7366 10.7227 48.7366 10.2C48.7366 9.69867 48.5713 9.26667 48.2406 8.904C47.9206 8.53067 47.462 8.344 46.8646 8.344V8.328Z" fill="#456653"/>
<path d="M56.3949 1V14.28H53.4829V1H56.3949Z" fill="#456653"/>
<path d="M61.223 6.072V14.28H58.311V6.072H61.223ZM59.767 1.288C60.215 1.29867 60.599 1.464 60.919 1.784C61.239 2.104 61.399 2.488 61.399 2.936C61.399 3.384 61.239 3.768 60.919 4.088C60.599 4.408 60.215 4.568 59.767 4.568C59.319 4.568 58.935 4.408 58.615 4.088C58.295 3.768 58.135 3.384 58.135 2.936C58.135 2.488 58.295 2.104 58.615 1.784C58.935 1.464 59.319 1.304 59.767 1.304V1.288Z" fill="#456653"/>
<path d="M67.1711 11.864H70.6271V14.28H62.3071L66.1631 8.488H62.8191V6.072H71.0111L67.1711 11.864Z" fill="#456653"/>
<path d="M80.5086 10.36V10.664H74.3806C74.3806 11.2613 74.5353 11.72 74.8446 12.04C75.154 12.3493 75.6073 12.504 76.2046 12.504C76.514 12.504 76.7806 12.4453 77.0046 12.328C77.2393 12.2107 77.4366 12.0187 77.5966 11.752L80.3966 11.736C80.162 12.7173 79.6393 13.432 78.8286 13.88C78.0286 14.328 77.1593 14.552 76.2206 14.552C74.866 14.552 73.7353 14.184 72.8286 13.448C71.922 12.7013 71.4686 11.6187 71.4686 10.2C71.4686 8.83467 71.89 7.76267 72.7326 6.984C73.586 6.20533 74.6793 5.816 76.0126 5.816C77.442 5.816 78.546 6.22667 79.3246 7.048C80.114 7.86933 80.5086 8.97867 80.5086 10.376V10.36ZM74.4286 8.984H77.8046C77.73 8.6 77.5326 8.29067 77.2126 8.056C76.9033 7.82133 76.5513 7.704 76.1566 7.704C75.73 7.704 75.3566 7.816 75.0366 8.04C74.7166 8.25333 74.514 8.57333 74.4286 9V8.984Z" fill="#456653"/>
<path d="M90.2386 6.072V14.28H87.3266V6.072H90.2386ZM88.7826 1.288C89.2306 1.29867 89.6146 1.464 89.9346 1.784C90.2546 2.104 90.4146 2.488 90.4146 2.936C90.4146 3.384 90.2546 3.768 89.9346 4.088C89.6146 4.408 89.2306 4.568 88.7826 4.568C88.3346 4.568 87.9506 4.408 87.6306 4.088C87.3106 3.768 87.1506 3.384 87.1506 2.936C87.1506 2.488 87.3106 2.104 87.6306 1.784C87.9506 1.464 88.3346 1.304 88.7826 1.304V1.288Z" fill="#456653"/>
<path d="M95.3388 8.472V14.28H92.4268V8.472H91.4827V6.072H92.4268V3.608H95.3388V6.072H96.9867V8.472H95.3388Z" fill="#456653"/>
</svg>
