<svg width="12" height="11" viewBox="0 0 12 11" fill="none" xmlns="http://www.w3.org/2000/svg">
<path d="M5.99976 9.12566L3.40626 10.6897C3.3096 10.7461 3.21276 10.7698 3.11576 10.7608C3.01876 10.7518 2.93098 10.7192 2.85243 10.6628C2.77376 10.6064 2.71304 10.5327 2.67026 10.4417C2.6276 10.3507 2.62076 10.25 2.64976 10.1397L3.33826 7.19483L1.04859 5.21283C0.963039 5.13849 0.908539 5.05238 0.885095 4.95449C0.861539 4.8566 0.867706 4.76149 0.903595 4.66916C0.939484 4.57694 0.991206 4.50155 1.05876 4.44299C1.12632 4.38444 1.21865 4.34616 1.33576 4.32816L4.35743 4.06416L5.5306 1.28333C5.57326 1.17988 5.63798 1.10338 5.72476 1.05382C5.81154 1.00427 5.90321 0.979492 5.99976 0.979492C6.09632 0.979492 6.18798 1.00427 6.27476 1.05382C6.36154 1.10338 6.42626 1.17988 6.46893 1.28333L7.6421 4.06416L10.6638 4.32816C10.7809 4.34616 10.8732 4.38444 10.9408 4.44299C11.0083 4.50155 11.06 4.57694 11.0959 4.66916C11.1318 4.76149 11.138 4.8566 11.1144 4.95449C11.091 5.05238 11.0365 5.13849 10.9509 5.21283L8.66126 7.19483L9.34976 10.1397C9.37876 10.25 9.37193 10.3507 9.32926 10.4417C9.28648 10.5327 9.22576 10.6064 9.1471 10.6628C9.06854 10.7192 8.98076 10.7518 8.88376 10.7608C8.78676 10.7698 8.68993 10.7461 8.59326 10.6897L5.99976 9.12566Z" fill="#DC8437"/>
</svg>
