<svg width="29" height="28" viewBox="0 0 29 28" fill="none" xmlns="http://www.w3.org/2000/svg">
<path d="M6.08337 21V22.1667V5.83337V21ZM6.44242 23.9167C5.86064 23.9167 5.36364 23.7107 4.95142 23.2987C4.53939 22.8864 4.33337 22.3894 4.33337 21.8077V6.19242C4.33337 5.61064 4.53939 5.11364 4.95142 4.70142C5.36364 4.28939 5.86064 4.08337 6.44242 4.08337H22.0577C22.6394 4.08337 23.1364 4.28939 23.5487 4.70142C23.9607 5.11364 24.1667 5.61064 24.1667 6.19242V9.36721H22.4167V6.19242C22.4167 6.08761 22.3831 6.00157 22.3158 5.93429C22.2485 5.86701 22.1625 5.83337 22.0577 5.83337H6.44242C6.33761 5.83337 6.25157 5.86701 6.18429 5.93429C6.11701 6.00157 6.08337 6.08761 6.08337 6.19242V21.8077C6.08337 21.9125 6.11701 21.9985 6.18429 22.0658C6.25157 22.1331 6.33761 22.1667 6.44242 22.1667H22.0577C22.1625 22.1667 22.2485 22.1331 22.3158 22.0658C22.3831 21.9985 22.4167 21.9125 22.4167 21.8077V18.6329H24.1667V21.8077C24.1667 22.3894 23.9607 22.8864 23.5487 23.2987C23.1364 23.7107 22.6394 23.9167 22.0577 23.9167H6.44242ZM15.7757 19.25C15.194 19.25 14.697 19.044 14.2847 18.632C13.8727 18.2198 13.6667 17.7228 13.6667 17.141V10.8591C13.6667 10.2773 13.8727 9.7803 14.2847 9.36808C14.697 8.95605 15.194 8.75004 15.7757 8.75004H23.2243C23.8061 8.75004 24.3031 8.95605 24.7153 9.36808C25.1274 9.7803 25.3334 10.2773 25.3334 10.8591V17.141C25.3334 17.7228 25.1274 18.2198 24.7153 18.632C24.3031 19.044 23.8061 19.25 23.2243 19.25H15.7757ZM23.2243 17.5C23.3291 17.5 23.4152 17.4664 23.4825 17.3991C23.5497 17.3318 23.5834 17.2458 23.5834 17.141V10.8591C23.5834 10.7543 23.5497 10.6682 23.4825 10.601C23.4152 10.5337 23.3291 10.5 23.2243 10.5H15.7757C15.6709 10.5 15.5849 10.5337 15.5176 10.601C15.4503 10.6682 15.4167 10.7543 15.4167 10.8591V17.141C15.4167 17.2458 15.4503 17.3318 15.5176 17.3991C15.5849 17.4664 15.6709 17.5 15.7757 17.5H23.2243ZM18.9167 15.75C19.4028 15.75 19.816 15.5799 20.1563 15.2396C20.4966 14.8993 20.6667 14.4862 20.6667 14C20.6667 13.5139 20.4966 13.1007 20.1563 12.7605C19.816 12.4202 19.4028 12.25 18.9167 12.25C18.4306 12.25 18.0174 12.4202 17.6771 12.7605C17.3368 13.1007 17.1667 13.5139 17.1667 14C17.1667 14.4862 17.3368 14.8993 17.6771 15.2396C18.0174 15.5799 18.4306 15.75 18.9167 15.75Z" fill="black"/>
</svg>
