<svg width="14" height="14" viewBox="0 0 14 14" fill="none" xmlns="http://www.w3.org/2000/svg">
<path d="M13.1311 4.4087C12.7938 3.61685 12.3167 2.90651 11.7001 2.28933C11.0834 1.67216 10.3854 1.19473 9.59421 0.857024C8.76816 0.50768 7.89556 0.333008 6.99967 0.333008C6.09216 0.333008 5.21958 0.50768 4.40513 0.857024C3.61399 1.19473 2.90427 1.67216 2.28763 2.28933C1.671 2.90651 1.19397 3.61685 0.856568 4.4087C0.507528 5.22381 0.333008 6.0972 0.333008 7.0055C0.333008 7.90216 0.507528 8.7755 0.856568 9.60231C1.19397 10.3942 1.671 11.1045 2.28763 11.7217C2.90427 12.3388 3.61399 12.8163 4.40513 13.1423C5.23119 13.4916 6.10379 13.6663 6.99967 13.6663C7.89556 13.6663 8.76816 13.4916 9.59421 13.1423C10.3854 12.8046 11.0951 12.3272 11.7117 11.71C12.3284 11.0928 12.8054 10.3825 13.1428 9.59063C13.4918 8.76386 13.6663 7.89052 13.6663 6.99385C13.6663 6.09721 13.4802 5.22381 13.1311 4.4087ZM4.78908 6.37665C5.05668 5.30535 6.034 4.52517 7.18582 4.52517H11.8164C12.1189 5.09575 12.3051 5.72454 12.3749 6.37665H4.78908ZM12.3749 7.63434C12.3051 8.28645 12.1073 8.91525 11.8164 9.48582H7.18582C6.034 9.48582 5.0683 8.69402 4.78908 7.63434H12.3749ZM3.17186 3.17435C4.19571 2.14961 5.55698 1.59065 6.99967 1.59065C8.44237 1.59065 9.80364 2.14961 10.8275 3.17435C10.8624 3.20928 10.8857 3.23257 10.9205 3.2675H7.18582C6.18525 3.2675 5.25449 3.65178 4.54475 4.36213C3.98629 4.92106 3.62562 5.61974 3.50927 6.37665H1.62445C1.76407 5.16559 2.29926 4.04771 3.17186 3.17435ZM6.99967 12.4203C5.55698 12.4203 4.19571 11.8614 3.17186 10.8366C2.29926 9.96328 1.76407 8.83372 1.62445 7.63434H3.50927C3.63725 8.39125 3.99792 9.08994 4.54475 9.64888C5.25449 10.3592 6.18525 10.7435 7.18582 10.7435H10.9205C10.8857 10.7784 10.8624 10.8017 10.8275 10.8366C9.80364 11.8614 8.44237 12.4203 6.99967 12.4203Z" fill="black"/>
</svg>
