<svg width="359" height="17" viewBox="0 0 359 17" fill="none" xmlns="http://www.w3.org/2000/svg">
<path d="M165 9C165.276 9 165.5 8.77614 165.5 8.5C165.5 8.22386 165.276 8 165 8V9ZM0 9H165V8H0V9Z" fill="#D7D7CC"/>
<path d="M176.767 13.1364C176.176 13.1364 175.658 12.9957 175.212 12.7145C174.768 12.4332 174.422 12.0398 174.172 11.5341C173.925 11.0284 173.801 10.4375 173.801 9.76136C173.801 9.07955 173.925 8.48437 174.172 7.97585C174.422 7.46733 174.768 7.07244 175.212 6.79119C175.658 6.50994 176.176 6.36932 176.767 6.36932C177.358 6.36932 177.875 6.50994 178.318 6.79119C178.764 7.07244 179.111 7.46733 179.358 7.97585C179.608 8.48437 179.733 9.07955 179.733 9.76136C179.733 10.4375 179.608 11.0284 179.358 11.5341C179.111 12.0398 178.764 12.4332 178.318 12.7145C177.875 12.9957 177.358 13.1364 176.767 13.1364ZM176.767 12.233C177.216 12.233 177.585 12.1179 177.875 11.8878C178.165 11.6577 178.379 11.3551 178.518 10.9801C178.658 10.6051 178.727 10.1989 178.727 9.76136C178.727 9.32386 178.658 8.91619 178.518 8.53835C178.379 8.16051 178.165 7.85511 177.875 7.62216C177.585 7.3892 177.216 7.27273 176.767 7.27273C176.318 7.27273 175.949 7.3892 175.659 7.62216C175.369 7.85511 175.155 8.16051 175.016 8.53835C174.876 8.91619 174.807 9.32386 174.807 9.76136C174.807 10.1989 174.876 10.6051 175.016 10.9801C175.155 11.3551 175.369 11.6577 175.659 11.8878C175.949 12.1179 176.318 12.233 176.767 12.233ZM181.268 13V6.45455H182.24V7.44318H182.308C182.427 7.11932 182.643 6.85653 182.956 6.65483C183.268 6.45312 183.62 6.35227 184.012 6.35227C184.086 6.35227 184.179 6.35369 184.289 6.35653C184.4 6.35937 184.484 6.36364 184.541 6.36932V7.39205C184.507 7.38352 184.429 7.37074 184.306 7.35369C184.187 7.33381 184.061 7.32386 183.927 7.32386C183.609 7.32386 183.325 7.39062 183.075 7.52415C182.828 7.65483 182.632 7.83665 182.487 8.0696C182.345 8.29972 182.274 8.5625 182.274 8.85795V13H181.268Z" fill="#767670"/>
<path d="M358 9C358.276 9 358.5 8.77614 358.5 8.5C358.5 8.22386 358.276 8 358 8V9ZM193 9H358V8H193V9Z" fill="#D7D7CC"/>
</svg>
