<svg width="99" height="20" viewBox="0 0 99 20" fill="none" xmlns="http://www.w3.org/2000/svg">
<path d="M14.1059 5.86777C15.2104 5.86777 16.1059 6.7632 16.1059 7.86777L16.1059 11.8678C16.1059 13.4142 14.8523 14.6678 13.3059 14.6678L3.70586 14.6678C2.15946 14.6678 0.905859 13.4142 0.905859 11.8678L0.905859 7.06777C0.905859 6.40503 1.44312 5.86777 2.10586 5.86777L14.1059 5.86777Z" fill="#456653" stroke="#F3F3EF" stroke-width="0.8"/>
<path d="M13.7055 14.6686L13.7055 17.4686C13.7055 18.1313 13.1682 18.6686 12.5055 18.6686L3.70547 18.6686C3.04273 18.6686 2.50547 18.1313 2.50547 17.4686L2.50547 14.6686L13.7055 14.6686Z" fill="#456653" stroke="#F3F3EF" stroke-width="0.8"/>
<rect x="0.905859" y="3.02402" width="3.2" height="6.4" rx="1.6" fill="#456653" stroke="#F3F3EF" stroke-width="0.8"/>
<rect x="4.10508" y="1.42344" width="3.2" height="8" rx="1.6" fill="#456653" stroke="#F3F3EF" stroke-width="0.8"/>
<rect x="7.30625" y="0.623633" width="3.2" height="8.8" rx="1.6" fill="#456653" stroke="#F3F3EF" stroke-width="0.8"/>
<rect x="10.5055" y="1.42344" width="3.2" height="8" rx="1.6" fill="#456653" stroke="#F3F3EF" stroke-width="0.8"/>
<path d="M14.5062 6.66855C15.3899 6.66855 16.1063 7.3849 16.1063 8.26856C16.1063 9.15221 15.3899 9.86856 14.5062 9.86856L8.90625 9.86855C8.02259 9.86855 7.30625 9.15221 7.30625 8.26855C7.30625 7.3849 8.02259 6.66855 8.90625 6.66855L14.5062 6.66855Z" fill="#456653" stroke="#F3F3EF" stroke-width="0.8"/>
<rect x="11.7051" y="7.06836" width="4" height="4.8" rx="1.2" fill="#456653"/>
<path d="M29.7459 11.5596L33.5379 16.5036H29.6339L26.6739 11.8636H26.6419V16.5036H23.5059V4.43963H28.1939C29.3885 4.4503 30.3859 4.7543 31.1859 5.35163C31.9859 5.9383 32.3859 6.87697 32.3859 8.16763C32.3859 8.99963 32.1565 9.74097 31.6979 10.3916C31.2499 11.0316 30.5992 11.4263 29.7459 11.5756V11.5596ZM26.6419 6.83963V9.84763H26.9459C26.9992 9.8583 27.0525 9.86363 27.1059 9.86363C27.1592 9.86363 27.2072 9.86363 27.2499 9.86363C27.7192 9.8423 28.1459 9.73563 28.5299 9.54363C28.9245 9.34097 29.1219 8.9463 29.1219 8.35963C29.1219 7.77297 28.9245 7.38363 28.5299 7.19163C28.1459 6.98897 27.7192 6.87697 27.2499 6.85563C27.2072 6.85563 27.1592 6.85563 27.1059 6.85563C27.0525 6.85563 26.9992 6.85563 26.9459 6.85563L26.6419 6.83963Z" fill="#456653"/>
<path d="M42.7489 12.5836V12.8876H36.6209C36.6209 13.485 36.7755 13.9436 37.0849 14.2636C37.3942 14.573 37.8475 14.7276 38.4449 14.7276C38.7542 14.7276 39.0209 14.669 39.2449 14.5516C39.4795 14.4343 39.6769 14.2423 39.8369 13.9756L42.6369 13.9596C42.4022 14.941 41.8795 15.6556 41.0689 16.1036C40.2689 16.5516 39.3995 16.7756 38.4609 16.7756C37.1062 16.7756 35.9755 16.4076 35.0689 15.6716C34.1622 14.925 33.7089 13.8423 33.7089 12.4236C33.7089 11.0583 34.1302 9.9863 34.9729 9.20763C35.8262 8.42897 36.9195 8.03963 38.2529 8.03963C39.6822 8.03963 40.7862 8.4503 41.5649 9.27163C42.3542 10.093 42.7489 11.2023 42.7489 12.5996V12.5836ZM36.6689 11.2076H40.0449C39.9702 10.8236 39.7729 10.5143 39.4529 10.2796C39.1435 10.045 38.7915 9.92763 38.3969 9.92763C37.9702 9.92763 37.5969 10.0396 37.2769 10.2636C36.9569 10.477 36.7542 10.797 36.6689 11.2236V11.2076Z" fill="#456653"/>
<path d="M53.0585 8.29563V16.5036H50.1465V15.5916H50.1145C49.8798 15.9756 49.5598 16.2636 49.1545 16.4556C48.7492 16.637 48.3278 16.7383 47.8905 16.7596C47.8478 16.7703 47.8052 16.7756 47.7625 16.7756C47.7198 16.7756 47.6772 16.7756 47.6345 16.7756C46.4185 16.7756 45.4212 16.3436 44.6425 15.4796C43.8745 14.605 43.4905 13.581 43.4905 12.4076C43.4905 11.2343 43.8692 10.2156 44.6265 9.35163C45.3945 8.47697 46.3865 8.03963 47.6025 8.03963C47.6558 8.03963 47.7092 8.03963 47.7625 8.03963C47.8158 8.03963 47.8692 8.04497 47.9225 8.05563C48.3385 8.08763 48.7438 8.1943 49.1385 8.37563C49.5438 8.5463 49.8798 8.79163 50.1465 9.11163V8.29563H53.0585ZM48.3705 10.5516C47.7838 10.5623 47.3251 10.7543 46.9945 11.1276C46.6638 11.4903 46.4985 11.9223 46.4985 12.4236C46.4985 12.9463 46.6638 13.3836 46.9945 13.7356C47.3251 14.0876 47.7838 14.2636 48.3705 14.2636C48.9678 14.2636 49.4265 14.0876 49.7465 13.7356C50.0772 13.3836 50.2425 12.9463 50.2425 12.4236C50.2425 11.9223 50.0772 11.4903 49.7465 11.1276C49.4265 10.7543 48.9678 10.5676 48.3705 10.5676V10.5516Z" fill="#456653"/>
<path d="M57.9007 3.22363V16.5036H54.9887V3.22363H57.9007Z" fill="#456653"/>
<path d="M62.7289 8.29563V16.5036H59.8169V8.29563H62.7289ZM61.2729 3.51163C61.7209 3.5223 62.1049 3.68763 62.4249 4.00763C62.7449 4.32763 62.9049 4.71163 62.9049 5.15963C62.9049 5.60763 62.7449 5.99163 62.4249 6.31163C62.1049 6.63163 61.7209 6.79163 61.2729 6.79163C60.8249 6.79163 60.4409 6.63163 60.1209 6.31163C59.8009 5.99163 59.6409 5.60763 59.6409 5.15963C59.6409 4.71163 59.8009 4.32763 60.1209 4.00763C60.4409 3.68763 60.8249 3.52763 61.2729 3.52763V3.51163Z" fill="#456653"/>
<path d="M68.677 14.0876H72.133V16.5036H63.813L67.669 10.7116H64.325V8.29563H72.517L68.677 14.0876Z" fill="#456653"/>
<path d="M82.0145 12.5836V12.8876H75.8865C75.8865 13.485 76.0411 13.9436 76.3505 14.2636C76.6598 14.573 77.1132 14.7276 77.7105 14.7276C78.0198 14.7276 78.2865 14.669 78.5105 14.5516C78.7452 14.4343 78.9425 14.2423 79.1025 13.9756L81.9025 13.9596C81.6678 14.941 81.1451 15.6556 80.3345 16.1036C79.5345 16.5516 78.6652 16.7756 77.7265 16.7756C76.3718 16.7756 75.2411 16.4076 74.3345 15.6716C73.4278 14.925 72.9745 13.8423 72.9745 12.4236C72.9745 11.0583 73.3958 9.9863 74.2385 9.20763C75.0918 8.42897 76.1852 8.03963 77.5185 8.03963C78.9478 8.03963 80.0518 8.4503 80.8305 9.27163C81.6198 10.093 82.0145 11.2023 82.0145 12.5996V12.5836ZM75.9345 11.2076H79.3105C79.2358 10.8236 79.0385 10.5143 78.7185 10.2796C78.4091 10.045 78.0572 9.92763 77.6625 9.92763C77.2358 9.92763 76.8625 10.0396 76.5425 10.2636C76.2225 10.477 76.0198 10.797 75.9345 11.2236V11.2076Z" fill="#456653"/>
<path d="M91.7445 8.29563V16.5036H88.8325V8.29563H91.7445ZM90.2885 3.51163C90.7365 3.5223 91.1205 3.68763 91.4405 4.00763C91.7605 4.32763 91.9205 4.71163 91.9205 5.15963C91.9205 5.60763 91.7605 5.99163 91.4405 6.31163C91.1205 6.63163 90.7365 6.79163 90.2885 6.79163C89.8405 6.79163 89.4565 6.63163 89.1365 6.31163C88.8165 5.99163 88.6565 5.60763 88.6565 5.15963C88.6565 4.71163 88.8165 4.32763 89.1365 4.00763C89.4565 3.68763 89.8405 3.52763 90.2885 3.52763V3.51163Z" fill="#456653"/>
<path d="M96.8446 10.6956V16.5036H93.9326V10.6956H92.9886V8.29563H93.9326V5.83163H96.8446V8.29563H98.4926V10.6956H96.8446Z" fill="#456653"/>
</svg>
